<?xml version="1.0" encoding="UTF-8" standalone="no"?>
<!-- Created with Inkscape (http://www.inkscape.org/) -->

<svg
   xmlns:dc="http://purl.org/dc/elements/1.1/"
   xmlns:cc="http://creativecommons.org/ns#"
   xmlns:rdf="http://www.w3.org/1999/02/22-rdf-syntax-ns#"
   xmlns:svg="http://www.w3.org/2000/svg"
   xmlns="http://www.w3.org/2000/svg"
   xmlns:sodipodi="http://sodipodi.sourceforge.net/DTD/sodipodi-0.dtd"
   xmlns:inkscape="http://www.inkscape.org/namespaces/inkscape"
   width="1003.1585"
   height="1173.1476"
   id="svg2"
   version="1.1"
   inkscape:version="0.47 r22583"
   sodipodi:docname="man_at_work_text_wip.svg"
   style="display:inline">
  <defs
     id="defs4">
    <inkscape:perspective
       sodipodi:type="inkscape:persp3d"
       inkscape:vp_x="0 : 526.18109 : 1"
       inkscape:vp_y="0 : 1000 : 0"
       inkscape:vp_z="744.09448 : 526.18109 : 1"
       inkscape:persp3d-origin="372.04724 : 350.78739 : 1"
       id="perspective10" />
    <inkscape:perspective
       id="perspective2881"
       inkscape:persp3d-origin="0.5 : 0.33333333 : 1"
       inkscape:vp_z="1 : 0.5 : 1"
       inkscape:vp_y="0 : 1000 : 0"
       inkscape:vp_x="0 : 0.5 : 1"
       sodipodi:type="inkscape:persp3d" />
    <inkscape:perspective
       id="perspective3750"
       inkscape:persp3d-origin="0.5 : 0.33333333 : 1"
       inkscape:vp_z="1 : 0.5 : 1"
       inkscape:vp_y="0 : 1000 : 0"
       inkscape:vp_x="0 : 0.5 : 1"
       sodipodi:type="inkscape:persp3d" />
    <inkscape:perspective
       id="perspective2839"
       inkscape:persp3d-origin="0.5 : 0.33333333 : 1"
       inkscape:vp_z="1 : 0.5 : 1"
       inkscape:vp_y="0 : 1000 : 0"
       inkscape:vp_x="0 : 0.5 : 1"
       sodipodi:type="inkscape:persp3d" />
    <inkscape:perspective
       id="perspective3718"
       inkscape:persp3d-origin="0.5 : 0.33333333 : 1"
       inkscape:vp_z="1 : 0.5 : 1"
       inkscape:vp_y="0 : 1000 : 0"
       inkscape:vp_x="0 : 0.5 : 1"
       sodipodi:type="inkscape:persp3d" />
    <inkscape:perspective
       id="perspective2964"
       inkscape:persp3d-origin="0.5 : 0.33333333 : 1"
       inkscape:vp_z="1 : 0.5 : 1"
       inkscape:vp_y="0 : 1000 : 0"
       inkscape:vp_x="0 : 0.5 : 1"
       sodipodi:type="inkscape:persp3d" />
  </defs>
  <sodipodi:namedview
     id="base"
     pagecolor="#ffffff"
     bordercolor="#666666"
     borderopacity="1.0"
     inkscape:pageopacity="0.0"
     inkscape:pageshadow="2"
     inkscape:zoom="0.89979646"
     inkscape:cx="573.80093"
     inkscape:cy="141.4497"
     inkscape:document-units="px"
     inkscape:current-layer="layer1"
     showgrid="false"
     inkscape:window-width="1680"
     inkscape:window-height="1025"
     inkscape:window-x="0"
     inkscape:window-y="0"
     inkscape:window-maximized="0"
     showguides="true"
     inkscape:guide-bbox="true">
    <inkscape:grid
       type="xygrid"
       id="grid3732"
       empspacing="5"
       visible="true"
       enabled="true"
       snapvisiblegridlinesonly="true" />
    <sodipodi:guide
       orientation="1,0"
       position="1001.3376,18.893226"
       id="guide3639" />
  </sodipodi:namedview>
  <metadata
     id="metadata7">
    <rdf:RDF>
      <cc:Work
         rdf:about="">
        <dc:format>image/svg+xml</dc:format>
        <dc:type
           rdf:resource="http://purl.org/dc/dcmitype/StillImage" />
        <dc:title></dc:title>
      </cc:Work>
    </rdf:RDF>
  </metadata>
  <g
     inkscape:groupmode="layer"
     id="layer1"
     inkscape:label="layer"
     transform="translate(-1.8119391e-6,1.5505627e-6)"
     sodipodi:insensitive="true">
    <g
       id="g3675">
      <path
         d="m -86.390976,724.06736 c -37.284734,-3.05248 -62.672084,-46.38464 -46.335114,-80.27764 67.572141,-117.31467 375.98264,-647.147374 450.07479,-777.09783 21.28588,-30.76328 71.50629,-31.08328 92.69002,0.0117 67.81142,117.176511 374.91259,646.55345 450.40693,775.69435 15.99883,33.81577 -8.83424,77.46793 -46.35493,80.2662 -135.38355,0.13815 -750.895205,0.59394 -900.481696,1.4035 z"
         id="path590"
         sodipodi:nodetypes="ccccccc"
         style="font-size:12px;fill:#ff0000;fill-rule:evenodd;stroke-width:3pt;display:inline"
         transform="translate(137.77483,156.49925)" />
      <path
         d="M 13.559108,621.79729 724.06761,619.7415 366.97678,-7.5383948 13.559108,621.79729 z"
         id="path605"
         sodipodi:nodetypes="cccc"
         style="font-size:12px;fill:#ffbb00;fill-opacity:1;fill-rule:evenodd;stroke:none;display:inline"
         transform="translate(137.77483,156.49925)" />
      <g
         style="stroke:#ffbb00;stroke-opacity:1;display:inline"
         transform="translate(161.83988,168.20657)"
         id="g3735">
        <path
           style="fill:#000000;fill-opacity:1;stroke:#ffbb00;stroke-width:1.00013328px;stroke-linecap:butt;stroke-linejoin:miter;stroke-opacity:1"
           d="m 431.45067,289.77111 5.53066,21.51818 -60.04975,15.04441 c -4.04085,1.01237 -9.52221,-1.07176 -12.46673,-3.28975 -0.90423,-0.68111 -2.8473,-1.34523 -6.12274,-0.52464 l -10.91815,2.04549 -1.10614,-4.99349 c 6.80083,-1.92147 8.6038,-1.5644 11.14811,-2.9653 2.18362,-0.54707 3.69484,-1.66583 4.56542,-2.8001 2.18048,-2.84087 4.67648,-7.8146 9.36956,-8.99039 l 60.04976,-15.04441 z"
           id="path2844"
           sodipodi:nodetypes="ccssccccssc" />
        <g
           style="stroke:#ffbb00;stroke-opacity:1;display:inline"
           id="g3707"
           transform="translate(-2.1562973,2.7657124)">
          <path
             sodipodi:nodetypes="ccccccc"
             id="path2927"
             d="m 412.85047,322.24793 c 2.12195,0.35366 2.00534,-28.33341 0.34831,-30.21123 -5.20652,-5.49758 -18.85593,-0.35696 -23.08944,5.20325 l 4.35277,24.77126 -5.89311,1.77706 6.27412,2.79212 18.00735,-4.33246 z"
             style="fill:#211414;fill-opacity:1;stroke:#ffbb00;stroke-width:2;stroke-linecap:round;stroke-linejoin:round;stroke-miterlimit:4;stroke-opacity:1;stroke-dasharray:none" />
        </g>
      </g>
      <path
         sodipodi:nodetypes="ccccczcc"
         id="path3740"
         d="M 273.71673,350.25282 593.23585,531.9062 c 0.85956,4.41214 -2.09048,4.92619 -5.09559,8.07854 L 268.62114,358.33136 c -11.94588,20.33246 -12.44272,23.2312 -24.07941,44.61865 -48.2049,-32.77935 -96.79902,-54.88647 -66.22549,-103.35774 30.57354,-48.47127 119.37694,8.5802 119.37694,8.5802 0,0 -11.93234,22.98561 -23.97645,42.08035 z"
         style="fill:#000000;fill-opacity:1;stroke:#000000;stroke-width:0.69002265px;stroke-linecap:butt;stroke-linejoin:miter;stroke-opacity:1;display:inline"
         transform="translate(137.77483,156.49925)" />
      <path
         sodipodi:nodetypes="cccccccccsccccscsscssscccssscsscscc"
         id="path2888"
         d="m 305.90395,357.37063 c -28.39108,5.77992 -46.42056,23.40167 -57.06854,49.45942 -15.12045,27.67421 -32.56771,62.99823 -19.98748,108.30014 l 9.0426,24.24739 c 17.35331,41.41777 48.51941,32.00809 78.476,5.36813 l 51.36169,-89.4074 -32.33884,67.53112 12.36485,54.21512 58.01969,-17.12057 c 0,0 -0.74855,-88.93418 1.90228,-92.26082 9.83196,-12.33857 -21.07024,-62.06459 -57.06854,-30.43656 l -47.55713,51.3617 41.85027,-72.28683 72.28683,20.92514 c 0,0 13.74105,-0.79374 20.15277,-15.13838 12.27247,-27.4566 3.50847,-87.23961 3.50847,-87.23961 -10.55396,2.86927 -13.65102,3.85848 -26.30214,6.40903 -3.72953,0.75191 0.73862,54.11868 -5.91938,53.16754 -6.658,-0.95114 -72.28683,-20.92513 -72.28683,-20.92513 1.67355,-1.69937 0.0758,-20.98446 6.30188,-21.95199 12.24353,-1.90263 16.47943,3.38368 21.72022,-7.10806 1.4958,-2.9945 0.0426,-8.87366 0.51665,-13.62463 0.18969,-1.90113 5.17782,-2.00247 5.94282,-3.70049 -4.84693,-11.26483 0.36631,-13.89848 -3.47271,-21.46867 -1.85107,-3.5922 -0.60343,-5.3056 -3.27403,-8.19299 -0.29265,-1.61502 16.12475,-3.61551 17.53665,-5.40702 0.1853,-0.23512 -0.16543,-1.82173 -2.65134,-1.97821 -4.38097,-0.27579 -12.59596,0.97655 -15.42018,1.16093 -3.50342,0.22873 -3.03806,-5.25737 -10.34669,-15.1158 -2.92929,-3.75723 -16.91824,-4.49768 -31.4534,-1.67143 -6.00057,1.16677 -18.3842,-0.72696 -23.33389,4.93953 -1.91614,2.19363 -3.65794,16.09709 -1.66425,20.69995 5.30823,20.49629 -1.50431,35.52548 6.81122,43.94832 2.83926,2.87591 0.53078,9.06192 2.35051,13.30113 l -3e-5,0 z"
         style="fill:#000000;fill-opacity:1;stroke:#ffbb00;stroke-width:1;stroke-linecap:butt;stroke-linejoin:miter;stroke-miterlimit:4;stroke-opacity:1;stroke-dasharray:none;display:inline"
         transform="translate(137.77483,156.49925)" />
      <path
         sodipodi:nodetypes="cccscccccc"
         id="path3662"
         d="m 364.90662,574.44633 c 0,0 20.6812,-7.06187 26.5661,-8.07072 2.12228,-0.36382 3.19465,26.5661 3.19465,26.5661 7.88735,4.3005 19.77627,1.9937 31.0141,-0.66635 17.64315,-4.17622 33.41153,6.3265 21.78181,26.89617 -17.26236,0.052 -46.2945,-0.34432 -63.55685,-4.70793 l -0.67256,5.38048 -28.58377,-2.35395 c 1.07575,-7.49895 -1.52128,-14.07971 6.05303,-23.2033 l 4.20349,-19.8405 z"
         style="fill:#000000;fill-opacity:1;stroke:#ffbb00;stroke-width:1;stroke-linecap:butt;stroke-linejoin:miter;stroke-miterlimit:4;stroke-opacity:1;stroke-dasharray:none;display:inline"
         transform="translate(137.77483,156.49925)" />
      <path
         sodipodi:nodetypes="ccccscccccc"
         id="path3722"
         d="m 528.48222,556.15382 16.53966,21.61966 26.77816,-2.36722 c 20.11004,-18.17438 33.3888,-16.53942 43.68562,3.5939 0.0964,2.84801 -46.30365,25.95169 -47.92622,22.47044 -1.17146,-2.51343 4.08208,7.00163 4.08208,7.00163 l -32.09916,11.9205 c -8.39488,-8.94509 -17.36067,-17.43098 -19.71591,-31.23346 l -15.63305,-23.40976 23.96267,-10.97378 0.32615,1.37809 z"
         style="fill:#000000;fill-opacity:1;stroke:#ffbb00;stroke-width:1;stroke-linecap:butt;stroke-linejoin:miter;stroke-miterlimit:4;stroke-opacity:1;stroke-dasharray:none;display:inline"
         transform="translate(137.77483,156.49925)" />
      <path
         sodipodi:nodetypes="cccccccc"
         id="path3718"
         d="m 408.18218,487.53037 0.01,45.41431 53.56416,-16.82885 c 19.38019,21.17755 19.88477,39.06896 34.14521,55.12677 l 36.77292,-20.79564 -47.35907,-66.63735 c -3.81765,-5.04232 -7.63531,-4.45689 -11.45296,-6.42363 l -65.68006,10.14439 z"
         style="fill:#000000;fill-opacity:1;stroke:#ffbb00;stroke-width:1;stroke-linecap:butt;stroke-linejoin:miter;stroke-miterlimit:4;stroke-opacity:1;stroke-dasharray:none;display:inline"
         transform="translate(137.77483,156.49925)" />
      <path
         id="path3714"
         d="m 291.21818,612.5084 0,0 z"
         style="fill:none;stroke:#000000;stroke-width:1px;stroke-linecap:butt;stroke-linejoin:miter;stroke-opacity:1;display:inline"
         transform="translate(137.77483,156.49925)" />
      <path
         sodipodi:nodetypes="csccccccc"
         id="path3716"
         d="m 325.49407,622.60173 c -10.6378,-12.11899 -17.2592,-19.26371 -26.16319,-31.62082 -4.43049,-6.14869 -6.13912,-16.2329 -14.40969,-21.05906 -22.25179,-7.59348 -45.49312,-30.45204 -79.88962,-38.04553 -4.49838,-21.20345 -6.96325,-15.28982 -15.94633,-28.16025 -12.59212,-15.33281 -11.75376,-35.92245 -46.16916,-42.71341 -5.2725,-18.51767 -16.00918,-15.04651 -26.38129,-19.725 C 83.549629,501.56572 49.242631,555.5764 14.359968,623.52154 l 311.134102,-0.91981 z"
         style="fill:#000000;fill-opacity:1;stroke:#000000;stroke-width:1.04925215px;stroke-linecap:butt;stroke-linejoin:miter;stroke-opacity:1;display:inline"
         transform="translate(137.77483,156.49925)" />
      <path
         id="rect5539"
         d="m 989.69367,928.97227 0,205.91033 c 0,15.6579 -21.53938,28.264 -48.29456,28.264 l -881.734582,0 c -26.755176,0 -48.294535,-12.6061 -48.294535,-28.264 l 0,-205.91033 c 0,-15.65792 21.539359,-28.26322 48.294535,-28.26322 l 881.734582,0 c 26.75518,0 48.29456,12.6053 48.29456,28.26322 z"
         style="fill:#ffbb00;fill-opacity:1;stroke:#000000;stroke-width:20.00200081;stroke-linejoin:round;stroke-miterlimit:4;stroke-opacity:1;stroke-dasharray:none;display:inline" />
      <g
         id="text2895"
         style="font-size:143.32762146px;font-style:normal;font-variant:normal;font-weight:bold;font-stretch:normal;text-align:start;line-height:125%;writing-mode:lr-tb;text-anchor:start;fill:#000000;fill-opacity:1;stroke:#000000;stroke-width:1.03248262;stroke-miterlimit:4;stroke-opacity:1;display:inline;font-family:LMMathExtension10;-inkscape-font-specification:Bitstream Vera Sans Bold"
         transform="matrix(0.77650189,0,0,1.2878269,2.2227249,-14.447712)">
        <path
           style="stroke-width:1.03248262"
           id="path3621"
           d="m 80.353653,756.61541 34.292257,0 23.79462,55.91737 23.93459,-55.91737 34.22227,0 0,104.4864 -25.47424,0 0,-76.42274 -24.07456,56.33727 -17.07615,0 -24.07456,-56.33727 0,76.42274 -25.544227,0 0,-104.4864" />
        <path
           style="stroke-width:1.03248262"
           id="path3623"
           d="m 223.1214,756.61541 72.71357,0 0,20.3654 -45.76966,0 0,19.4556 43.04028,0 0,20.3654 -43.04028,0 0,23.9346 47.30931,0 0,20.3654 -74.25322,0 0,-104.4864" />
        <path
           style="stroke-width:1.03248262"
           id="path3625"
           d="m 321.09926,756.61541 30.0932,0 38.00142,71.66381 0,-71.66381 25.54422,0 0,104.4864 -30.0932,0 -38.00141,-71.66381 0,71.66381 -25.54423,0 0,-104.4864" />
        <path
           style="stroke-width:1.03248262"
           id="path3627"
           d="m 554.42657,842.06611 -42.13049,0 -6.6485,19.0357 -27.08388,0 38.70126,-104.4864 32.12274,0 38.70126,104.4864 -27.08388,0 -6.57851,-19.0357 m -35.41201,-19.38562 28.62354,0 -14.27678,-41.57061 -14.34676,41.57061" />
        <path
           style="stroke-width:1.03248262"
           id="path3629"
           d="m 578.22117,756.61541 96.29825,0 0,20.3654 -34.64217,0 0,84.121 -26.94392,0 0,-84.121 -34.71216,0 0,-20.3654" />
        <path
           style="stroke-width:1.03248262"
           id="path3631"
           d="m 729.31704,756.61541 25.82417,0 18.05592,75.93285 17.91595,-75.93285 25.96413,0 17.91596,75.93285 18.05592,-75.93285 25.61421,0 -24.63443,104.4864 -31.07298,0 -18.96572,-79.43206 -18.75576,79.43206 -31.07298,0 -24.84439,-104.4864" />
        <path
           style="stroke-width:1.03248262"
           id="path3633"
           d="m 944.09856,774.25143 c -8.21153,8e-5 -14.58009,3.03273 -19.10569,9.09794 -4.52568,6.06537 -6.7885,14.60343 -6.78846,25.61421 -4e-5,10.96424 2.26278,19.47897 6.78846,25.54423 4.5256,6.06532 10.89416,9.09797 19.10569,9.09795 8.25806,2e-5 14.64994,-3.03263 19.17566,-9.09795 4.52556,-6.06526 6.78838,-14.57999 6.78847,-25.54423 -9e-5,-11.01078 -2.26291,-19.54884 -6.78847,-25.61421 -4.52572,-6.06521 -10.9176,-9.09786 -19.17566,-9.09794 m 0,-19.52559 c 16.79612,1e-4 29.95314,4.80568 39.47108,14.41674 9.51774,9.61125 14.27666,22.8849 14.27677,39.821 -1.1e-4,16.88956 -4.75903,30.13988 -14.27677,39.75102 -9.51794,9.61117 -22.67496,14.41675 -39.47108,14.41675 -16.7496,0 -29.90661,-4.80558 -39.47109,-14.41675 -9.51786,-9.61114 -14.27678,-22.86146 -14.27677,-39.75102 -10e-6,-16.9361 4.75891,-30.20975 14.27677,-39.821 9.56448,-9.61106 22.72149,-14.41664 39.47109,-14.41674" />
        <path
           style="stroke-width:1.03248262"
           id="path3635"
           d="m 1056.4232,802.94494 c 5.6453,6e-5 9.681,-1.0497 12.1072,-3.14928 2.4727,-2.09947 3.7091,-5.55202 3.7092,-10.35766 -1e-4,-4.75885 -1.2365,-8.16475 -3.7092,-10.2177 -2.4262,-2.05278 -6.4619,-3.07922 -12.1072,-3.0793 l -11.3375,0 0,26.80394 11.3375,0 m -11.3375,18.6158 0,39.54107 -26.9439,0 0,-104.4864 41.1507,0 c 13.7635,1.1e-4 23.8412,2.30958 30.2332,6.92844 6.4384,4.61905 9.6577,11.92072 9.6578,21.90505 -1e-4,6.90517 -1.6797,12.57389 -5.0389,17.00616 -3.3126,4.43238 -8.3282,7.69831 -15.0466,9.79778 3.6858,0.83986 6.975,2.75276 9.8678,5.73871 2.9392,2.93937 5.9019,7.41836 8.888,13.43696 l 14.6267,29.6733 -28.6935,0 -12.7372,-25.96414 c -2.5661,-5.22545 -5.1788,-8.79464 -7.8382,-10.70758 -2.6128,-1.91286 -6.112,-2.86931 -10.4976,-2.86935 l -7.6283,0" />
        <path
           style="stroke-width:1.03248262"
           id="path3637"
           d="m 1128.4369,756.61541 26.9439,0 0,38.14138 38.8412,-38.14138 31.283,0 -50.3187,49.47882 55.4975,55.00758 -33.7324,0 -41.5706,-41.15071 0,41.15071 -26.9439,0 0,-104.4864" />
      </g>
    </g>
  </g>
</svg>
